#!OML:ASF X:\für Bonn\!DataBase\2005_08_12_Daniel\c3d\Daniel.ASF
:FULLY-SPECIFIED
:DEGREES
3625
root -4.54706 17.198 -2.91895 318.253 -79.8933 -324.569
lowerback 11.6655 -3.45264 -6.32137
upperback -1.26517 -5.71444 -2.17199
thorax -7.50795 -2.58418 2.24575
lowerneck 4.21415 2.50953 -4.9938
upperneck 5.01966 3.02393 1.97178
head 0.739842 1.39675 1.42688
rclavicle 1.86609e-014 1.23246e-014
rhumerus 0.510523 -27.2344 -15.39
rradius 6.22921
rwrist 33.0365
rhand -20.4947 4.28399
rfingers 7.12502
rthumb 5.8622 -25.6149
lclavicle 1.86609e-014 1.23246e-014
lhumerus -13.261 -21.0327 -4.59939
lradius 21.3595
lwrist 28.7434
lhand -19.4902 19.3924
lfingers 7.12502
lthumb 6.83191 49.2622
rfemur 6.23022 25.2394 17.0251
rtibia 24.9389
rfoot -47.858 -30.4072
rtoes -7.15727
lfemur -4.98013 -23.3586 -23.8212
ltibia 31.742
lfoot -25.9109 7.54423
ltoes -0.594636
3626
root -4.55404 17.1997 -2.91082 318.37 -79.8705 -324.656
lowerback 11.6274 -3.45382 -6.32672
upperback -1.32299 -5.71746 -2.17713
thorax -7.5485 -2.58291 2.24317
lowerneck 4.3474 2.52674 -4.83749
upperneck 5.05366 3.04479 1.89765
head 0.73069 1.4074 1.37417
rclavicle 1.7872e-014 2.5842e-015
rhumerus 0.876085 -27.1885 -15.1711
rradius 6.24693
rwrist 32.2733
rhand -20.3718 4.15308
rfingers 7.12502
rthumb 5.9809 -25.7425
lclavicle 1.7872e-014 2.5842e-015
lhumerus -13.2378 -22.4471 -5.01896
lradius 21.6586
lwrist 30.416
lhand -19.7151 19.8679
lfingers 7.12502
lthumb 6.61483 49.7445
rfemur 6.25044 25.1522 16.9682
rtibia 24.8745
rfoot -47.7653 -30.4591
rtoes -7.292
lfemur -4.97476 -23.44 -23.8665
ltibia 31.7574
lfoot -25.9725 7.59847
ltoes -0.585439
3627
root -4.56054 17.2007 -2.90214 318.426 -79.8574 -324.692
lowerback 11.5919 -3.44298 -6.31131
upperback -1.37148 -5.70241 -2.19456
thorax -7.58514 -2.57447 2.21319
lowerneck 4.47386 2.53095 -4.72397
upperneck 5.09017 3.04615 1.87534
head 0.722822 1.40797 1.34585
rclavicle -3.60981e-014 -2.17669e-014
rhumerus 1.23068 -27.1766 -14.9744
rradius 6.17354
rwrist 31.5858
rhand -20.4176 4.01315
rfingers 7.12502
rthumb 5.93663 -25.8837
lclavicle -3.60981e-014 -2.17669e-014
lhumerus -13.1613 -23.8026 -5.42011
lradius 21.939
lwrist 32.1574
lhand -19.8543 20.2298
lfingers 7.12502
lthumb 6.48046 50.1107
rfemur 6.26006 24.9826 16.8772
rtibia 24.8139
rfoot -47.569 -30.431
rtoes -7.38073
lfemur -4.97145 -23.4512 -23.9081
ltibia 31.7725
lfoot -25.9998 7.62961
ltoes -0.611129
3628
root -4.56723 17.2003 -2.89393 318.59 -79.8386 -324.849
lowerback 11.5748 -3.44749 -6.29228
upperback -1.41853 -5.70751 -2.19941
thorax -7.62814 -2.57532 2.19905
lowerneck 4.5958 2.55146 -4.6368
upperneck 5.11603 3.06839 1.87643
head 0.711016 1.41892 1.32929
rclavicle -5.77842e-014 -2.98177e-015
rhumerus 1.56774 -27.1428 -14.799
rradius 6.13449
rwrist 30.9482
rhand -20.5293 3.91304
rfingers 7.12502
rthumb 5.82883 -25.9868
lclavicle -5.77842e-014 -2.98177e-015
lhumerus -13.0937 -25.1 -5.76539
lradius 22.1303
lwrist 33.7223
lhand -19.8766 20.4364
lfingers 7.12502
lthumb 6.45897 50.3179
rfemur 6.31872 24.9416 16.8601
rtibia 24.7496
rfoot -47.5647 -30.4285
rtoes -7.41061
lfemur -4.95457 -23.5021 -23.9462
ltibia 31.7948
lfoot -26.0373 7.65772
ltoes -0.618862
3629
root -4.57306 17.2007 -2.88607 318.662 -79.8199 -324.916
lowerback 11.5672 -3.43979 -6.28111
upperback -1.46475 -5.69895 -2.21046
thorax -7.67669 -2.56921 2.18118
lowerneck 4.74426 2.56333 -4.52185
upperneck 5.1217 3.08037 1.83271
head 0.690009 1.42511 1.29321
rclavicle -1.46852e-014 1.68967e-015
rhumerus 1.88098 -27.117 -14.6004
rradius 6.03715
rwrist 30.4866
rhand -20.7257 3.75287
rfingers 7.12502
rthumb 5.63921 -26.1521
lclavicle -1.46852e-014 1.68967e-015
lhumerus -13.0262 -26.4102 -6.06911
lradius 22.3479
lwrist 35.332
lhand -19.8476 20.5058
lfingers 7.12502
lthumb 6.48698 50.3864
rfemur 6.34727 24.8028 16.793
rtibia 24.6921
rfoot -47.4086 -30.4226
rtoes -7.4903
lfemur -4.93269 -23.5597 -23.9938
ltibia 31.8139
lfoot -26.0761 7.69536
ltoes -0.538381
3630
root -4.57949 17.2022 -2.87798 318.79 -79.8158 -325.024
lowerback 11.5458 -3.43743 -6.25262
upperback -1.51829 -5.69321 -2.21132
thorax -7.72555 -2.56478 2.1642
lowerneck 4.84102 2.58289 -4.48871
upperneck 5.15868 3.10014 1.85975
head 0.684861 1.43401 1.29477
rclavicle -2.88486e-014 -2.50469e-014
rhumerus 2.17211 -27.0762 -14.4179
rradius 5.96478
rwrist 30.1313
rhand -20.8871 3.66964
rfingers 7.12502
rthumb 5.48334 -26.2394
lclavicle -2.88486e-014 -2.50469e-014
lhumerus -12.9523 -27.3788 -6.33237
lradius 22.4897
lwrist 36.5072
lhand -19.6809 20.427
lfingers 7.12502
lthumb 6.64787 50.3027
rfemur 6.362 24.6876 16.7362
rtibia 24.6341
rfoot -47.2965 -30.4117
rtoes -7.58109
lfemur -4.93262 -23.5918 -24.0195
ltibia 31.8373
lfoot -26.1114 7.72518
ltoes -0.554573
3631
root -4.58594 17.2028 -2.87041 318.908 -79.8118 -325.133
lowerback 11.527 -3.43544 -6.21845
upperback -1.56597 -5.68814 -2.22323
thorax -7.7712 -2.56155 2.13254
lowerneck 4.97903 2.60023 -4.4182
upperneck 5.16707 3.11727 1.86623
head 0.664948 1.44231 1.28246
rclavicle 1.1368e-014 1.96797e-014
rhumerus 2.4686 -27.0472 -14.2666
rradius 5.82557
rwrist 29.9911
rhand -21.1007 3.57032
rfingers 7.12502
rthumb 5.27712 -26.344
lclavicle 1.1368e-014 1.96797e-014
lhumerus -12.899 -28.5266 -6.57041
lradius 22.6837
lwrist 37.9033
lhand -19.6724 20.2942
lfingers 7.12502
lthumb 6.6561 50.1696
rfemur 6.38533 24.5458 16.6849
rtibia 24.583
rfoot -47.1341 -30.3895
rtoes -7.72816
lfemur -4.91353 -23.6438 -24.0528
ltibia 31.8557
lfoot -26.1461 7.78397
ltoes -0.582052
3632
root -4.59228 17.2032 -2.86292 318.965 -79.7986 -325.177
lowerback 11.5045 -3.42362 -6.18088
upperback -1.60446 -5.66994 -2.24772
thorax -7.80744 -2.5531 2.08297
lowerneck 5.04462 2.61006 -4.36133
upperneck 5.22113 3.12693 1.88907
head 0.671025 1.44655 1.27936
rclavicle 5.05037e-014 5.26779e-015
rhumerus 2.68189 -27.0265 -14.0749
rradius 5.72578
rwrist 29.9185
rhand -21.161 3.43632
rfingers 7.12502
rthumb 5.2189 -26.4794
lclavicle 5.05037e-014 5.26779e-015
lhumerus -12.808 -29.5156 -6.7719
lradius 22.8381
lwrist 39.103
lhand -19.703 20.0121
lfingers 7.12502
lthumb 6.62652 49.8884
rfemur 6.41528 24.4733 16.6353
rtibia 24.5321
rfoot -47.0691 -30.393
rtoes -7.8313
lfemur -4.90462 -23.6516 -24.0904
ltibia 31.8756
lfoot -26.1724 7.78825
ltoes -0.576263
3633
root -4.59865 17.203 -2.85587 319.052 -79.8003 -325.256
lowerback 11.4946 -3.41772 -6.1541
upperback -1.65481 -5.66059 -2.24857
thorax -7.85955 -2.54686 2.06706
lowerneck 5.15253 2.63403 -4.3422
upperneck 5.24188 3.15188 1.91326
head 0.658714 1.45794 1.282
rclavicle 2.08475e-014 -1.56046e-014
rhumerus 2.93686 -26.9874 -13.9282
rradius 5.61638
rwrist 29.9121
rhand -21.1636 3.31803
rfingers 7.12502
rthumb 5.21637 -26.5978
lclavicle 2.08475e-014 -1.56046e-014
lhumerus -12.7771 -30.6773 -6.89495
lradius 23.0169
lwrist 40.4679
lhand -19.9149 19.7943
lfingers 7.12502
lthumb 6.42195 49.6769
rfemur 6.42337 24.3109 16.5729
rtibia 24.4903
rfoot -46.8842 -30.3805
rtoes -7.95325
lfemur -4.88572 -23.7104 -24.119
ltibia 31.8923
lfoot -26.2305 7.83167
ltoes -0.556288
